<svg width="260" height="100" viewBox="0 0 260 100" fill="none" xmlns="http://www.w3.org/2000/svg">
<g clip-path="url(#clip0_374_140)">
<path d="M66.5027 53.9854V45.8809C67.4259 45.6977 68.2935 45.3011 69.0362 44.7228C69.779 44.1444 70.3763 43.4004 70.7805 42.5501C71.1847 41.6998 71.3847 40.7667 71.3644 39.8253C71.344 38.884 71.104 37.9604 70.6635 37.1283C70.2229 36.2963 69.5941 35.5787 68.8271 35.033C68.06 34.4873 67.1761 34.1286 66.2459 33.9854C65.3156 33.8422 64.3648 33.9185 63.4693 34.2083C62.5738 34.498 61.7583 34.9932 61.0881 35.6543L53.477 30.9198C53.5057 30.6809 53.5205 30.4405 53.5215 30.1999C53.5204 28.7342 52.9864 27.319 52.019 26.2183C51.0517 25.1175 49.7171 24.4064 48.2643 24.2176C46.8114 24.0287 45.3395 24.3751 44.1232 25.1919C42.9068 26.0088 42.0289 27.2405 41.6535 28.6572C41.278 30.0739 41.4305 31.5789 42.0825 32.8914C42.7346 34.2039 43.8416 35.2343 45.1971 35.7903C46.5526 36.3464 48.0641 36.3902 49.4495 35.9135C50.8349 35.4368 51.9996 34.4722 52.7265 33.1996L59.7756 37.5947C59.4261 38.4221 59.2653 39.317 59.3047 40.2143C59.3441 41.1117 59.5829 41.989 60.0036 42.7825C60.4243 43.576 61.0164 44.2658 61.7369 44.8017C62.4574 45.3377 63.2882 45.7063 64.1689 45.8809V53.9854C62.6972 54.2754 61.3861 55.103 60.4909 56.307C59.5957 57.511 59.1805 59.0052 59.3261 60.4986C59.4717 61.9921 60.1677 63.3779 61.2787 64.3861C62.3896 65.3944 63.8358 65.9529 65.3358 65.9529C66.8357 65.9529 68.282 65.3944 69.3929 64.3861C70.5038 63.3779 71.1999 61.9921 71.3455 60.4986C71.4911 59.0052 71.0759 57.511 70.1807 56.307C69.2854 55.103 67.9743 54.2754 66.5027 53.9854Z" fill="#E63E11"/>
<path d="M53.5215 49.933C53.5223 48.7877 53.1976 47.6658 52.5854 46.698C51.9731 45.7303 51.0984 44.9566 50.0634 44.4672C49.0283 43.9778 47.8755 43.7929 46.7393 43.934C45.6032 44.0751 44.5306 44.5364 43.6466 45.2641C42.7625 45.9919 42.1035 46.956 41.7464 48.0442C41.3892 49.1323 41.3486 50.2996 41.6294 51.41C41.9101 52.5203 42.5006 53.5279 43.332 54.3153C44.1634 55.1027 45.2014 55.6374 46.3249 55.8571V63.8793C44.8648 64.168 43.5626 64.986 42.6684 66.1763L35.8694 61.9492C36.1619 61.1308 36.2745 60.259 36.1996 59.3931C36.1246 58.5273 35.8639 57.6878 35.4352 56.9319C35.0065 56.176 34.4199 55.5214 33.7154 55.0129C33.0108 54.5044 32.205 54.1539 31.3528 53.9853V45.8808C32.8244 45.5908 34.1355 44.7632 35.0308 43.5592C35.926 42.3552 36.3412 40.861 36.1956 39.3676C36.05 37.8741 35.3539 36.4883 34.243 35.4801C33.1321 34.4718 31.6858 33.9133 30.1859 33.9133C28.6859 33.9133 27.2397 34.4718 26.1288 35.4801C25.0179 36.4883 24.3218 37.8741 24.1762 39.3676C24.0306 40.861 24.4458 42.3552 25.341 43.5592C26.2362 44.7632 27.5474 45.5908 29.019 45.8808V53.9853C28.08 54.1699 27.1982 54.5751 26.4465 55.1676C25.6947 55.7601 25.0945 56.5228 24.6954 57.393C24.2962 58.2631 24.1095 59.2157 24.1506 60.1722C24.1917 61.1287 24.4595 62.0618 24.9319 62.8944C25.4044 63.727 26.0678 64.4354 26.8676 64.9611C27.6675 65.4868 28.5808 65.8148 29.5322 65.918C30.4836 66.0213 31.446 65.8968 32.3399 65.5548C33.2337 65.2129 34.0336 64.6633 34.6734 63.9513L41.6369 68.2916C41.5099 68.7867 41.4454 69.2957 41.445 69.8069C41.4448 70.952 41.77 72.0737 42.3827 73.041C42.9954 74.0083 43.8703 74.7815 44.9055 75.2703C45.9406 75.7592 47.0933 75.9437 48.2293 75.8022C49.3652 75.6607 50.4375 75.1991 51.3212 74.4712C52.205 73.7434 52.8636 72.7792 53.2205 71.6911C53.5774 70.603 53.6178 69.4358 53.3369 68.3257C53.056 67.2155 52.4655 66.2081 51.6342 65.4209C50.8029 64.6336 49.765 64.099 48.6415 63.8793V55.8571C50.0152 55.5885 51.253 54.8509 52.1431 53.7703C53.0332 52.6897 53.5205 51.3333 53.5215 49.933Z" fill="#E63E11"/>
<path d="M178.652 34.3241C179.03 34.3172 179.402 34.4144 179.728 34.6052C180.032 34.7814 180.286 35.0314 180.468 35.332L179.838 35.8188C179.718 35.6121 179.547 35.4401 179.341 35.3198C179.135 35.1996 178.901 35.1352 178.662 35.1332C178.447 35.126 178.235 35.1898 178.059 35.3149C177.978 35.372 177.912 35.4488 177.868 35.5381C177.825 35.6274 177.804 35.7264 177.809 35.8257C177.804 35.908 177.817 35.9904 177.848 36.0669C177.879 36.1434 177.926 36.2121 177.987 36.268C178.173 36.4086 178.377 36.5239 178.594 36.6108L179.224 36.8988C179.61 37.0556 179.959 37.2888 180.252 37.5844C180.479 37.8373 180.602 38.1669 180.595 38.5066C180.602 38.7309 180.558 38.9539 180.464 39.1579C180.371 39.362 180.231 39.5415 180.057 39.6825C179.669 39.9917 179.182 40.15 178.686 40.1282C178.248 40.1277 177.819 40.0093 177.442 39.7854C177.075 39.5731 176.774 39.2634 176.572 38.8906L177.209 38.4038C177.362 38.6661 177.578 38.8856 177.838 39.042C178.098 39.1984 178.393 39.2867 178.696 39.2986C178.949 39.3108 179.198 39.2357 179.402 39.086C179.49 39.0194 179.561 38.9326 179.608 38.8329C179.655 38.7332 179.677 38.6237 179.673 38.5135C179.679 38.4279 179.665 38.3422 179.633 38.2627C179.601 38.1832 179.551 38.1119 179.488 38.0541C179.294 37.899 179.078 37.7731 178.847 37.6804L178.224 37.389C177.862 37.2359 177.533 37.0161 177.254 36.7411C177.023 36.4903 176.9 36.1592 176.911 35.8188C176.906 35.6082 176.95 35.3994 177.04 35.2086C177.129 35.0177 177.261 34.85 177.425 34.7184C177.781 34.4289 178.228 34.2769 178.686 34.2898L178.652 34.3241Z" fill="#1D1D1B"/>
<path d="M184.296 40.0665H183.391V34.4338H184.296V40.0665Z" fill="#1D1D1B"/>
<path d="M190.016 36.9948C190.327 37.0885 190.601 37.2766 190.8 37.5331C190.99 37.792 191.089 38.1067 191.081 38.4279C191.088 38.6487 191.046 38.8684 190.959 39.0715C190.872 39.2746 190.742 39.4562 190.578 39.6038C190.213 39.9239 189.739 40.0899 189.255 40.0666H187.521V34.4339H188.823C189.268 34.4112 189.705 34.561 190.043 34.8521C190.193 34.9888 190.312 35.1564 190.391 35.3434C190.471 35.5304 190.508 35.7324 190.502 35.9355C190.509 36.1352 190.469 36.3336 190.386 36.5156C190.304 36.6975 190.18 36.8579 190.026 36.9845L190.016 36.9948ZM188.401 35.2293V36.748H188.717C188.952 36.7636 189.184 36.6902 189.368 36.5423C189.441 36.4694 189.499 36.3828 189.538 36.2875C189.578 36.1922 189.598 36.0901 189.598 35.9869C189.598 35.8837 189.578 35.7816 189.538 35.6863C189.499 35.591 189.441 35.5044 189.368 35.4315C189.183 35.2863 188.951 35.2143 188.717 35.2293H188.401ZM189.166 39.2644C189.43 39.281 189.691 39.1992 189.899 39.0347C189.985 38.9545 190.053 38.8566 190.097 38.7476C190.142 38.6387 190.162 38.5214 190.156 38.4039C190.161 38.2848 190.141 38.1661 190.097 38.0555C190.052 37.945 189.985 37.8452 189.899 37.7628C189.698 37.59 189.437 37.5037 189.173 37.5228H188.405V39.2712H189.166V39.2644Z" fill="#1D1D1B"/>
<path d="M197.15 35.2361H195.039V36.6828H197.15V37.4679H195.039V39.2506H197.15V40.0597H194.138V34.427H197.15V35.2361Z" fill="#1D1D1B"/>
<path d="M204.128 40.0562L202.531 37.8827H201.503V40.0562H200.598V34.427H202.654C203.155 34.4063 203.645 34.5766 204.025 34.9035C204.198 35.0599 204.336 35.2522 204.428 35.4671C204.519 35.6821 204.563 35.9144 204.556 36.148C204.561 36.4933 204.463 36.8323 204.275 37.1216C204.083 37.4065 203.804 37.6218 203.48 37.7353L205.169 40.0562H204.128ZM201.503 37.0805H202.633C202.906 37.0968 203.173 37.0043 203.377 36.8234C203.547 36.6422 203.642 36.4032 203.642 36.1548C203.642 35.9065 203.547 35.6674 203.377 35.4863C203.173 35.3054 202.906 35.2129 202.633 35.2292H201.503V37.0805Z" fill="#1D1D1B"/>
<path d="M208.507 40.0563H207.603V34.427H208.507V40.0563Z" fill="#1D1D1B"/>
<path d="M214.552 39.117H212.016L211.619 40.0563H210.652L213.133 34.3311H213.442L215.923 40.0563H214.95L214.552 39.117ZM213.288 35.9972L212.352 38.3353H214.216L213.288 35.9972Z" fill="#1D1D1B"/>
<path d="M222.485 34.427V40.1523H222.177L218.75 36.2509V40.0563H217.845V34.3311H218.161L221.588 38.2222V34.427H222.485Z" fill="#1D1D1B"/>
<path d="M180.598 48.0408H177.888V49.7103H180.119V50.5297H177.888V52.8507H176.983V47.2317H180.598V48.0408Z" fill="#1D1D1B"/>
<path d="M186.356 48.0408H184.299V49.4841H186.356V50.2692H184.299V52.0519H186.356V52.861H183.391V47.2317H186.356V48.0408Z" fill="#1D1D1B"/>
<path d="M191.074 47.2315C191.89 47.1878 192.69 47.466 193.302 48.0063C193.84 48.5451 194.143 49.2757 194.143 50.0376C194.143 50.7994 193.84 51.5301 193.302 52.0689C192.693 52.6139 191.894 52.8982 191.078 52.8608H189.303V47.2315H191.074ZM190.194 48.0509V52.0517H191.047C191.331 52.0669 191.616 52.025 191.884 51.9284C192.151 51.8318 192.397 51.6826 192.606 51.4895C192.798 51.3003 192.949 51.0736 193.049 50.8235C193.149 50.5734 193.197 50.3052 193.189 50.0359C193.202 49.7674 193.157 49.4992 193.059 49.2492C192.96 48.9992 192.809 48.773 192.617 48.5857C192.186 48.2123 191.627 48.0206 191.057 48.0509H190.194Z" fill="#1D1D1B"/>
<path d="M199.714 48.0408H197.616V49.4841H199.714V50.2692H197.616V52.0519H199.714V52.861H196.705V47.2317H199.707L199.714 48.0408Z" fill="#1D1D1B"/>
<path d="M206.16 52.8608L204.556 50.6873H203.528V52.8608H202.623V47.2316H204.679C205.18 47.2116 205.67 47.3818 206.05 47.7081C206.223 47.8646 206.36 48.0571 206.451 48.272C206.542 48.487 206.586 48.7192 206.578 48.9526C206.584 49.298 206.486 49.6374 206.297 49.9262C206.105 50.2111 205.826 50.4264 205.502 50.5399L207.191 52.8608H206.16ZM203.524 49.8851H204.659C204.93 49.9005 205.196 49.808 205.399 49.6279C205.568 49.4459 205.662 49.2064 205.662 48.9577C205.662 48.709 205.568 48.4696 205.399 48.2875C205.195 48.1086 204.929 48.0174 204.659 48.0338H203.524V49.8851Z" fill="#1D1D1B"/>
<path d="M212.277 51.9216H209.744L209.343 52.861H208.38L210.861 47.1357H211.17L213.651 52.861H212.678L212.277 51.9216ZM211.016 48.8087L210.07 51.1468H211.938L211.016 48.8087Z" fill="#1D1D1B"/>
<path d="M216.526 52.0519H219.103V52.861H215.625V47.2317H216.526V52.0519Z" fill="#1D1D1B"/>
<path d="M181.52 63.4408C181.534 63.7585 181.484 64.0758 181.374 64.3742C181.264 64.6726 181.096 64.9461 180.879 65.1789C180.662 65.3934 180.404 65.5612 180.12 65.6721C179.836 65.7829 179.532 65.8344 179.228 65.8234C178.92 65.8363 178.613 65.7861 178.325 65.6758C178.038 65.5656 177.775 65.3976 177.555 65.1823C177.337 64.9507 177.168 64.6773 177.059 64.3786C176.949 64.0798 176.901 63.762 176.918 63.4442V60.0879H177.822V63.5162C177.81 63.7171 177.838 63.9185 177.907 64.1078C177.975 64.2971 178.082 64.4703 178.22 64.6167C178.357 64.7461 178.519 64.8467 178.695 64.9127C178.872 64.9786 179.06 65.0085 179.248 65.0006C179.433 65.0081 179.618 64.9779 179.791 64.9119C179.964 64.8459 180.122 64.7455 180.256 64.6167C180.393 64.4699 180.498 64.2964 180.565 64.1071C180.633 63.9178 180.66 63.7166 180.646 63.5162V60.0879H181.551L181.52 63.4408Z" fill="#1D1D1B"/>
<path d="M189.303 60.1358V65.861H188.994L185.567 61.9631V65.7685H184.663V60.0432H184.978L188.405 63.9343V60.1358H189.303Z" fill="#1D1D1B"/>
<path d="M193.388 65.7684H192.483V60.1357H193.388V65.7684Z" fill="#1D1D1B"/>
<path d="M201.194 60.0913L198.713 65.8234H198.418L195.937 60.0982H196.965L198.586 64.0133L200.207 60.0982L201.194 60.0913Z" fill="#1D1D1B"/>
<path d="M206.677 60.9482H204.556V62.395H206.677V63.1801H204.556V64.9628H206.677V65.7753H203.655V60.1357H206.677V60.9482Z" fill="#1D1D1B"/>
<path d="M213.288 65.7686L211.684 63.5916H210.656V65.7686H209.751V60.1359H211.807C212.309 60.1158 212.799 60.2874 213.178 60.6158C213.352 60.7716 213.49 60.9638 213.582 61.1789C213.674 61.3939 213.717 61.6266 213.709 61.8603C213.716 62.2058 213.618 62.5451 213.428 62.8339C213.236 63.1189 212.957 63.3341 212.633 63.4476L214.323 65.7686H213.288ZM210.653 62.7894H211.783C212.054 62.8057 212.32 62.7145 212.524 62.5357C212.693 62.3536 212.787 62.1141 212.787 61.8654C212.787 61.6167 212.693 61.3773 212.524 61.1952C212.32 61.0151 212.054 60.9227 211.783 60.9381H210.653V62.7894Z" fill="#1D1D1B"/>
<path d="M218.26 59.9952C218.636 59.9899 219.007 60.0871 219.333 60.2763C219.637 60.4533 219.892 60.7031 220.076 61.0031L219.442 61.4899C219.323 61.2832 219.152 61.1111 218.946 60.9909C218.74 60.8706 218.506 60.8063 218.267 60.8043C218.052 60.7966 217.84 60.8591 217.664 60.9825C217.583 61.0403 217.518 61.1172 217.474 61.2064C217.431 61.2956 217.41 61.3941 217.414 61.4934C217.409 61.5765 217.422 61.6597 217.454 61.7369C217.485 61.814 217.533 61.8831 217.595 61.939C217.78 62.081 217.985 62.1964 218.202 62.2819L218.829 62.5733C219.214 62.7301 219.564 62.9633 219.857 63.2589C220.084 63.5119 220.206 63.8415 220.2 64.1811C220.207 64.4056 220.163 64.6287 220.07 64.8332C219.977 65.0377 219.839 65.2181 219.665 65.3605C219.276 65.6684 218.79 65.8255 218.294 65.8027C217.856 65.8042 217.426 65.6857 217.05 65.4599C216.684 65.2466 216.383 64.9372 216.18 64.5651L216.821 64.0783C216.968 64.3444 217.181 64.5687 217.438 64.7301C217.696 64.8914 217.991 64.9845 218.294 65.0005C218.547 65.0133 218.797 64.9382 219 64.7879C219.087 64.7202 219.157 64.6332 219.205 64.5339C219.252 64.4346 219.276 64.3255 219.274 64.2154C219.28 64.129 219.266 64.0425 219.233 63.9624C219.201 63.8822 219.15 63.8105 219.086 63.7526C218.89 63.6 218.674 63.4743 218.445 63.3789L217.825 63.0875C217.462 62.9352 217.132 62.7153 216.852 62.4396C216.621 62.189 216.498 61.8578 216.509 61.5174C216.502 61.3068 216.545 61.0976 216.634 60.9065C216.722 60.7154 216.855 60.5478 217.02 60.4169C217.379 60.1265 217.832 59.9767 218.294 59.9952H218.26Z" fill="#1D1D1B"/>
<path d="M223.668 65.7684H222.75V60.1357H223.654L223.668 65.7684Z" fill="#1D1D1B"/>
<path d="M229.487 60.9482H228.263V65.7684H227.359V60.9482H226.142V60.1357H229.487V60.9482Z" fill="#1D1D1B"/>
<path d="M233.908 63.4886V65.7684H233.006V63.4989L231.06 60.1357H232.067L233.438 62.587L234.836 60.1357H235.837L233.908 63.4886Z" fill="#1D1D1B"/>
<path d="M166.538 34.2966H165.626V65.861H166.538V34.2966Z" fill="#1D1D1B"/>
<path d="M85.4159 34.3276C85.91 34.3212 86.3978 34.439 86.8346 34.6704C87.2479 34.8902 87.5947 35.217 87.8387 35.6166L87.1533 36.1206C86.9938 35.8585 86.777 35.636 86.5192 35.4699C86.2614 35.3037 85.9693 35.1982 85.6649 35.1612C85.3604 35.1243 85.0516 35.1568 84.7615 35.2565C84.4715 35.3562 84.2078 35.5203 83.9903 35.7366C83.6155 36.14 83.4071 36.6703 83.4071 37.221C83.4071 37.7718 83.6155 38.3021 83.9903 38.7055C84.2078 38.9218 84.4715 39.0859 84.7615 39.1856C85.0516 39.2852 85.3604 39.3178 85.6649 39.2808C85.9693 39.2439 86.2614 39.1384 86.5192 38.9722C86.777 38.806 86.9938 38.5836 87.1533 38.3215L87.8387 38.8255C87.6001 39.227 87.2549 39.5546 86.8415 39.7717C86.4059 40.003 85.9192 40.1209 85.4261 40.1145C85.0384 40.1227 84.6529 40.0529 84.2927 39.9092C83.9324 39.7655 83.6046 39.5508 83.3289 39.278C82.7795 38.7283 82.4709 37.9829 82.4709 37.2056C82.4709 36.4283 82.7795 35.6829 83.3289 35.1332C83.6025 34.8567 83.9296 34.639 84.2902 34.4934C84.6508 34.3478 85.0374 34.2774 85.4261 34.2864L85.4159 34.3276Z" fill="#1D1D1B"/>
<path d="M96.4779 34.3V40.0253H95.5732V36.1513L92.0675 40.111H91.7522V34.3858H92.6569V38.2597L96.1695 34.3H96.4779Z" fill="#1D1D1B"/>
<path d="M104.213 35.2051H102.067V36.7067H102.845C103.332 36.6829 103.809 36.8474 104.178 37.1661C104.343 37.319 104.473 37.5056 104.559 37.7132C104.646 37.9208 104.686 38.1446 104.679 38.3694C104.688 38.5927 104.648 38.8152 104.563 39.0218C104.478 39.2283 104.349 39.414 104.185 39.5659C103.818 39.8846 103.341 40.0492 102.855 40.0253H101.169V34.396H104.223L104.213 35.2051ZM102.057 37.4746V39.223H102.76C103.024 39.2417 103.286 39.1597 103.493 38.9933C103.579 38.9132 103.647 38.8153 103.691 38.7063C103.735 38.5974 103.755 38.4801 103.75 38.3625C103.756 38.2419 103.736 38.1214 103.692 38.009C103.648 37.8967 103.58 37.7951 103.493 37.7112C103.292 37.5402 103.033 37.4551 102.77 37.4746H102.057Z" fill="#1D1D1B"/>
<path d="M113.52 34.283V40.0082H112.615V36.1342L109.109 40.1111H108.794V34.3858H109.699V38.2529L113.211 34.283H113.52Z" fill="#1D1D1B"/>
<path d="M119.212 34.3446C119.713 34.326 120.202 34.4961 120.583 34.8212C120.755 34.9788 120.892 35.1721 120.982 35.3875C121.073 35.603 121.115 35.8355 121.107 36.0691C121.114 36.3035 121.071 36.5367 120.98 36.7531C120.89 36.9694 120.754 37.164 120.583 37.3238C120.204 37.6538 119.714 37.8267 119.212 37.8072H118.547V39.9842H117.643V34.3515H119.212V34.3446ZM118.547 35.1537V37.005H119.195C119.328 37.0135 119.461 36.9955 119.587 36.9519C119.713 36.9083 119.829 36.8402 119.928 36.7513C120.091 36.5641 120.181 36.3242 120.181 36.0759C120.181 35.8277 120.091 35.5878 119.928 35.4006C119.829 35.3117 119.713 35.2435 119.587 35.2C119.461 35.1564 119.328 35.1384 119.195 35.1469L118.547 35.1537Z" fill="#1D1D1B"/>
<path d="M127.193 34.3275C127.686 34.3207 128.173 34.4386 128.609 34.6703C129.024 34.8891 129.372 35.216 129.616 35.6165L128.931 36.1205C128.771 35.8584 128.554 35.636 128.297 35.4698C128.039 35.3037 127.747 35.1981 127.442 35.1612C127.138 35.1242 126.829 35.1568 126.539 35.2564C126.249 35.3561 125.985 35.5202 125.768 35.7365C125.393 36.1399 125.185 36.6702 125.185 37.221C125.185 37.7717 125.393 38.302 125.768 38.7054C125.985 38.9217 126.249 39.0859 126.539 39.1855C126.829 39.2852 127.138 39.3177 127.442 39.2808C127.747 39.2438 128.039 39.1383 128.297 38.9721C128.554 38.806 128.771 38.5835 128.931 38.3215L129.616 38.8254C129.378 39.227 129.032 39.5545 128.619 39.7716C128.183 40.0027 127.697 40.1206 127.204 40.1145C126.815 40.1223 126.429 40.0524 126.069 39.9087C125.708 39.765 125.38 39.5506 125.103 39.278C124.555 38.7274 124.248 37.9823 124.248 37.2056C124.248 36.4288 124.555 35.6837 125.103 35.1331C125.377 34.8569 125.705 34.6394 126.066 34.4938C126.427 34.3483 126.814 34.2777 127.204 34.2864L127.193 34.3275Z" fill="#1D1D1B"/>
<path d="M146.46 34.3V40.0253H145.558V36.1513L142.053 40.111H141.737V34.3858H142.642V38.2597L146.155 34.3H146.46Z" fill="#1D1D1B"/>
<path d="M154.951 34.3V40.0253H154.047V36.1513L150.541 40.111H150.226V34.3857H151.127V38.2597L154.639 34.3H154.951ZM152.498 33.7549C152.314 33.7626 152.132 33.7318 151.961 33.6645C151.79 33.5972 151.636 33.4948 151.507 33.3641C151.38 33.2317 151.281 33.0752 151.216 32.9038C151.151 32.7325 151.12 32.5497 151.127 32.3665H151.85C151.842 32.5532 151.906 32.7359 152.028 32.8773C152.091 32.9398 152.166 32.9885 152.249 33.0204C152.331 33.0523 152.419 33.0666 152.508 33.0624C152.596 33.0672 152.684 33.0531 152.766 33.0212C152.848 32.9893 152.923 32.9402 152.984 32.8773C153.109 32.7372 153.174 32.5539 153.166 32.3665H153.868C153.874 32.55 153.844 32.7329 153.778 32.9042C153.712 33.0756 153.612 33.232 153.485 33.3641C153.356 33.4944 153.202 33.5965 153.032 33.6638C152.862 33.7311 152.68 33.7621 152.498 33.7549Z" fill="#1D1D1B"/>
<path d="M88.6988 49.9709C88.7124 50.2939 88.653 50.6159 88.5248 50.9127C88.3966 51.2095 88.2031 51.4735 87.9586 51.685C87.4164 52.1275 86.7319 52.3577 86.0326 52.333V53.094H85.1279V52.333C84.4302 52.3538 83.7485 52.1212 83.2089 51.6782C82.9647 51.4662 82.7712 51.2022 82.6425 50.9055C82.5138 50.6089 82.4532 50.2872 82.4652 49.964C82.4518 49.6432 82.5118 49.3235 82.6407 49.0294C82.7696 48.7353 82.9639 48.4745 83.2089 48.267C83.7542 47.8313 84.4373 47.6051 85.1348 47.6293V46.9197H86.0395V47.6533C86.7372 47.6278 87.4207 47.8542 87.9654 48.291C88.211 48.498 88.4057 48.7587 88.5346 49.0529C88.6636 49.3471 88.7232 49.6671 88.7091 49.988L88.6988 49.9709ZM83.3699 50.0051C83.3596 50.2179 83.397 50.4302 83.4794 50.6266C83.5619 50.8229 83.6872 50.9983 83.8463 51.1399C84.2088 51.4293 84.6648 51.5757 85.1279 51.5513V48.435C84.6648 48.4106 84.2088 48.557 83.8463 48.8464C83.6879 48.9917 83.5639 49.1705 83.4833 49.3697C83.4027 49.569 83.3675 49.7837 83.3802 49.9983L83.3699 50.0051ZM86.0155 51.541C86.4773 51.5671 86.9324 51.4219 87.2937 51.1331C87.5965 50.8297 87.7666 50.4185 87.7666 49.9897C87.7666 49.561 87.5965 49.1498 87.2937 48.8464C86.9332 48.5558 86.4778 48.4092 86.0155 48.435V51.5513V51.541Z" fill="#1D1D1B"/>
<path d="M112.811 47.1358C113.311 47.1164 113.801 47.2866 114.181 47.6123C114.354 47.7693 114.491 47.9618 114.582 48.1766C114.673 48.3915 114.716 48.6235 114.709 48.8568C114.716 49.0915 114.672 49.325 114.581 49.5414C114.49 49.7579 114.354 49.9523 114.181 50.1115C113.804 50.4446 113.313 50.619 112.811 50.5983H112.214V52.7753H111.31V47.1426H112.811V47.1358ZM112.214 47.9448V49.7961H112.793C112.927 49.8049 113.06 49.7867 113.186 49.7425C113.312 49.6983 113.428 49.6291 113.527 49.539C113.616 49.4493 113.684 49.3418 113.729 49.2237C113.773 49.1055 113.792 48.9793 113.784 48.8533C113.791 48.7275 113.772 48.6015 113.727 48.4834C113.683 48.3654 113.615 48.2579 113.527 48.1677C113.427 48.0788 113.311 48.0106 113.186 47.9671C113.06 47.9235 112.926 47.9055 112.793 47.914L112.214 47.9448Z" fill="#1D1D1B"/>
<path d="M119.575 51.8906H117.039L116.642 52.83H115.676L118.157 47.1047H118.465L120.946 52.83H119.973L119.575 51.8906ZM118.311 48.7777L117.375 51.1158H119.257L118.311 48.7777Z" fill="#1D1D1B"/>
<path d="M130.188 49.3674H130.737C131.257 49.3412 131.767 49.5183 132.159 49.8611C132.336 50.0234 132.475 50.222 132.568 50.4433C132.661 50.6646 132.705 50.9034 132.697 51.1432C132.706 51.3828 132.663 51.6214 132.57 51.8424C132.477 52.0633 132.337 52.2612 132.159 52.422C131.763 52.758 131.255 52.9319 130.737 52.9088H129.284V47.2761H130.188V49.3674ZM130.188 50.1867V52.1306H130.737C130.876 52.1389 131.016 52.1192 131.148 52.0727C131.28 52.0262 131.401 51.9538 131.504 51.8598C131.679 51.6653 131.776 51.4132 131.776 51.1518C131.776 50.8904 131.679 50.6383 131.504 50.4439C131.402 50.3482 131.281 50.2745 131.149 50.2274C131.017 50.1802 130.877 50.1606 130.737 50.1696L130.188 50.1867Z" fill="#1D1D1B"/>
<path d="M143.334 49.2885H143.93C144.451 49.2637 144.961 49.4419 145.353 49.7856C145.529 49.9473 145.669 50.1453 145.762 50.366C145.855 50.5868 145.899 50.825 145.891 51.0644C145.9 51.3039 145.857 51.5427 145.764 51.7637C145.671 51.9846 145.531 52.1825 145.353 52.3431C144.958 52.681 144.449 52.8551 143.93 52.83H142.416V47.2007H143.32L143.334 49.2885ZM143.334 50.1079V52.0552H143.93C144.07 52.063 144.21 52.0428 144.342 51.9957C144.474 51.9486 144.595 51.8755 144.698 51.7809C144.873 51.5865 144.969 51.3343 144.969 51.0729C144.969 50.8116 144.873 50.5594 144.698 50.365C144.595 50.2703 144.474 50.1973 144.342 50.1502C144.21 50.1031 144.07 50.0829 143.93 50.0907L143.334 50.1079ZM147.505 52.8505H146.6V47.2075H147.505V52.8505Z" fill="#1D1D1B"/>
<path d="M154.951 47.1047V52.83H154.047V48.956L150.541 52.9225H150.226V47.2007H151.127V51.0815L154.639 47.1219L154.951 47.1047ZM152.498 46.5596C152.314 46.5673 152.132 46.5365 151.961 46.4692C151.79 46.4019 151.636 46.2995 151.507 46.1688C151.379 46.0363 151.279 45.8793 151.214 45.7073C151.148 45.5353 151.117 45.3518 151.123 45.1677H151.847C151.839 45.3555 151.903 45.5392 152.025 45.682C152.087 45.7445 152.163 45.7932 152.245 45.8251C152.328 45.857 152.416 45.8713 152.504 45.8671C152.592 45.8719 152.68 45.8578 152.763 45.8259C152.845 45.794 152.919 45.7449 152.981 45.682C153.105 45.5405 153.171 45.3562 153.162 45.1677H153.868C153.875 45.3518 153.844 45.5353 153.778 45.7073C153.712 45.8793 153.612 46.0363 153.485 46.1688C153.356 46.2991 153.202 46.4012 153.032 46.4685C152.862 46.5358 152.68 46.5668 152.498 46.5596Z" fill="#1D1D1B"/>
<path d="M87.5749 59.9951L85.6215 64.5273C85.4904 64.8902 85.2468 65.2017 84.9262 65.4164C84.6056 65.631 84.2249 65.7375 83.8395 65.7204C83.5982 65.7214 83.3576 65.6926 83.1233 65.6347V64.853L83.6613 64.8942C83.8847 64.9128 84.1082 64.861 84.3006 64.746C84.493 64.631 84.6445 64.4586 84.734 64.2531L82.7395 59.9951H83.7676L85.2103 63.2486L86.5331 59.9951H87.5749Z" fill="#1D1D1B"/>
<path d="M94.9872 65.6347H94.0825V63.0566H91.2519V65.6347H90.3472V59.9951H91.2519V62.2407H94.0825V59.9951H94.9872V65.6347Z" fill="#1D1D1B"/>
<path d="M103.174 59.9094V65.6347H102.269V61.7607L98.7638 65.7272H98.4485V59.9951H99.3532V63.8691L102.866 59.9094H103.174Z" fill="#1D1D1B"/>
<path d="M109.065 62.5151C109.375 62.6113 109.648 62.7989 109.85 63.0533C110.041 63.3115 110.14 63.6267 110.131 63.9481C110.137 64.1691 110.096 64.3889 110.009 64.5924C109.923 64.796 109.794 64.9785 109.63 65.1274C109.264 65.4439 108.791 65.6082 108.308 65.5868H106.594V59.9576H107.869C108.313 59.9336 108.75 60.0836 109.086 60.3758C109.237 60.5116 109.357 60.6789 109.437 60.8661C109.517 61.0533 109.555 61.2557 109.548 61.4592C109.554 61.6591 109.514 61.8577 109.43 62.0395C109.347 62.2214 109.223 62.3818 109.068 62.5082L109.065 62.5151ZM107.468 60.7495V62.2682H107.77C108.003 62.2826 108.234 62.2106 108.417 62.066C108.49 61.993 108.548 61.9065 108.588 61.8112C108.627 61.7159 108.647 61.6137 108.647 61.5106C108.647 61.4074 108.627 61.3053 108.588 61.21C108.548 61.1147 108.49 61.0281 108.417 60.9552C108.235 60.8078 108.004 60.7344 107.77 60.7495H107.468ZM108.212 64.7949C108.476 64.8136 108.738 64.7315 108.945 64.5652C109.031 64.4851 109.099 64.3871 109.143 64.2782C109.188 64.1692 109.208 64.0519 109.202 63.9344C109.207 63.8155 109.186 63.6969 109.142 63.5864C109.098 63.476 109.031 63.3761 108.945 63.2933C108.745 63.1223 108.485 63.0373 108.222 63.0567H107.468V64.7949H108.222H108.212Z" fill="#1D1D1B"/>
<path d="M120.929 59.8581C121.43 59.8391 121.92 60.0105 122.3 60.3381C122.472 60.4952 122.608 60.6879 122.699 60.9027C122.789 61.1176 122.832 61.3495 122.824 61.5826C122.831 61.817 122.788 62.0502 122.697 62.2665C122.607 62.4829 122.471 62.6775 122.3 62.8373C121.921 63.1673 121.431 63.3402 120.929 63.3207H120.309V65.4977H119.404V59.865H120.929V59.8581ZM120.309 60.6809V62.5322H120.912C121.045 62.5406 121.179 62.5222 121.305 62.478C121.431 62.4339 121.546 62.3648 121.645 62.2751C121.733 62.1849 121.802 62.0773 121.846 61.9593C121.89 61.8413 121.909 61.7153 121.902 61.5894C121.91 61.4635 121.891 61.3372 121.847 61.2191C121.803 61.1009 121.734 60.9934 121.645 60.9038C121.546 60.814 121.431 60.745 121.305 60.7008C121.179 60.6566 121.045 60.6382 120.912 60.6466L120.309 60.6809Z" fill="#1D1D1B"/>
<path d="M127.69 59.8856C128.183 59.8786 128.67 59.9965 129.105 60.2284C129.52 60.4495 129.868 60.7773 130.113 61.178L129.428 61.682C129.268 61.42 129.051 61.1975 128.793 61.0313C128.536 60.8652 128.244 60.7596 127.939 60.7227C127.635 60.6857 127.326 60.7183 127.036 60.8179C126.746 60.9176 126.482 61.0818 126.265 61.298C125.89 61.7014 125.681 62.2318 125.681 62.7825C125.681 63.3332 125.89 63.8636 126.265 64.2669C126.483 64.482 126.746 64.6451 127.036 64.744C127.326 64.8429 127.635 64.875 127.939 64.8381C128.243 64.8012 128.534 64.6962 128.792 64.5308C129.05 64.3654 129.267 64.144 129.428 63.883L130.113 64.3869C129.873 64.7877 129.528 65.115 129.116 65.3331C128.679 65.5645 128.191 65.6824 127.697 65.676C127.309 65.6838 126.924 65.6138 126.564 65.4701C126.204 65.3264 125.876 65.112 125.6 64.8395C125.052 64.2889 124.745 63.5438 124.745 62.7671C124.745 61.9903 125.052 61.2452 125.6 60.6947C125.874 60.4185 126.201 60.201 126.561 60.0555C126.922 59.9099 127.308 59.8393 127.697 59.8479L127.69 59.8856Z" fill="#1D1D1B"/>
<path d="M137.388 59.9094V65.6347H136.484V61.7607L132.964 65.7272H132.649V59.9951H133.554V63.8691L137.077 59.9094H137.388Z" fill="#1D1D1B"/>
<path d="M143.283 60.8145H142.056V65.6347H141.155V60.8145H139.938V59.9951H143.283V60.8145Z" fill="#1D1D1B"/>
<path d="M154.951 60.8145H153.725V65.6347H152.82V60.8145H151.603V59.9951H154.951V60.8145Z" fill="#1D1D1B"/>
<path d="M94.4801 51.9386H92.4548V50.1559H94.4801V49.3708H92.4548V47.9275H94.4801V47.1184H91.55V52.7511H94.4801V51.9386Z" fill="#1D1D1B"/>
<path d="M108.359 52.0209H106.18V50.2347H108.287V49.4531H106.18V48.0098H108.359V47.2007H105.275V52.83H108.359V52.0209Z" fill="#1D1D1B"/>
<path d="M116.069 64.7777H113.921V62.995H116.025V62.2099H113.921V60.7666H116.069V59.9575H113.016V65.5868H116.069V64.7777Z" fill="#1D1D1B"/>
<path d="M149.15 64.8256H147.049V63.0394H149.15V62.2543H147.049V60.8145H149.15V60.002H146.144V65.6346H149.15V64.8256Z" fill="#1D1D1B"/>
<path d="M133.252 34.396H134.157V40.0253H133.252V34.396ZM138.105 40.0253H136.988L134.376 37.0255L136.737 34.3892H137.844L135.507 37.0255L138.105 40.0253Z" fill="#1D1D1B"/>
<path d="M134.853 36.6726H133.561V37.42H134.853V36.6726Z" fill="#1D1D1B"/>
<path d="M139.708 52.9088H138.79V50.3307H135.959V52.9088H135.055V47.2761H135.959V49.5217H138.79V47.2761H139.695L139.708 52.9088Z" fill="#1D1D1B"/>
<path d="M102.465 51.9386V53.9544H101.574V52.7511H97.7699V53.9544H96.8652V51.9386H97.3004C97.7188 51.5485 98.0233 51.052 98.1812 50.5021C98.4146 49.6623 98.5186 48.7918 98.4896 47.9206V47.1184H101.779V51.9489L102.465 51.9386ZM98.2943 51.9386H100.851V47.9206H99.3292C99.3258 49.8268 98.9831 51.1707 98.308 51.9386H98.2943Z" fill="#1D1D1B"/>
<path d="M126.683 47.2659V52.8678H125.768V48.0682H124.119C124.12 48.8202 124.06 49.5711 123.941 50.3137C123.866 50.8265 123.702 51.3221 123.454 51.7776C123.283 52.0931 123.038 52.3633 122.742 52.5661C122.459 52.7443 122.139 52.8556 121.806 52.8918V52.0484C122.063 51.9806 122.298 51.8459 122.486 51.6581C122.675 51.4702 122.81 51.2359 122.879 50.9788C123.149 50.0662 123.265 49.1149 123.221 48.1641V47.2454L126.683 47.2659Z" fill="#1D1D1B"/>
</g>
<defs>
<clipPath id="clip0_374_140">
<rect width="260" height="100" fill="white"/>
</clipPath>
</defs>
</svg>
